<?xml version="1.0" standalone="no"?>
   <!DOCTYPE svg PUBLIC "-//W3C//DTD SVG 1.1//EN" 
   "http://www.w3.org/Graphics/SVG/1.1/DTD/svg11.dtd"><svg id="svg" version="1.1" width="1734" height="2088" xmlns="http://www.w3.org/2000/svg"><path d="M690.389 176.696 C 688.127 178.129,678.498 200.046,668.990 225.400 C 659.483 250.755,608.880 384.225,556.540 522.000 C 504.200 659.775,446.808 810.975,429.002 858.000 C 411.196 905.025,382.231 981.300,364.635 1027.500 C 319.098 1147.063,281.092 1247.189,220.583 1407.000 C 191.533 1483.725,162.418 1560.130,155.882 1576.788 C 143.023 1609.566,142.028 1614.750,147.750 1619.147 C 149.813 1620.732,175.800 1631.608,205.500 1643.315 C 235.200 1655.022,312.150 1685.461,376.500 1710.957 C 440.850 1736.454,513.075 1765.049,537.000 1774.501 C 560.925 1783.954,639.900 1815.272,712.500 1844.098 C 857.080 1901.502,889.610 1911.587,931.500 1911.996 C 954.375 1912.219,963.083 1910.753,988.500 1902.404 C 1005.000 1896.984,1025.161 1888.938,1033.303 1884.525 C 1050.902 1874.985,1077.386 1851.463,1085.607 1838.072 C 1093.139 1825.803,1122.706 1747.299,1247.961 1407.000 C 1294.956 1279.324,1394.092 1011.183,1430.417 913.500 C 1451.892 855.750,1484.974 766.650,1503.934 715.500 C 1522.893 664.350,1550.033 591.272,1564.245 553.105 C 1578.456 514.938,1589.225 481.863,1588.176 479.605 C 1587.126 477.347,1568.544 459.189,1546.883 439.254 L 1507.500 403.008 1435.500 382.722 C 1395.900 371.565,1308.825 346.958,1242.000 328.041 C 1175.175 309.124,1099.575 287.777,1074.000 280.604 C 997.350 259.107,824.737 210.453,758.322 191.626 C 724.124 181.932,695.774 174.021,695.322 174.046 C 694.870 174.071,692.650 175.264,690.389 176.696 M792.000 223.118 C 835.725 235.457,905.925 255.274,948.000 267.156 C 990.075 279.038,1028.550 289.793,1033.500 291.057 C 1038.450 292.320,1095.825 308.490,1161.000 326.989 C 1299.668 366.349,1365.848 384.989,1434.000 403.880 C 1461.225 411.427,1483.961 418.039,1484.523 418.574 C 1485.453 419.458,1467.995 471.031,1445.958 532.500 C 1432.542 569.923,1299.598 948.569,1286.908 985.500 C 1280.672 1003.650,1262.488 1055.625,1246.499 1101.000 C 1230.511 1146.375,1208.783 1208.138,1198.215 1238.250 C 1187.647 1268.363,1170.113 1318.313,1159.251 1349.250 C 1148.389 1380.188,1130.978 1429.800,1120.560 1459.500 C 1110.143 1489.200,1087.865 1552.650,1071.054 1600.500 C 1054.242 1648.350,1034.587 1704.606,1027.376 1725.513 C 994.728 1820.166,952.044 1863.571,880.348 1875.024 C 865.464 1877.402,857.474 1877.318,849.393 1874.697 C 838.404 1871.133,767.906 1843.394,540.000 1752.960 C 471.525 1725.789,394.575 1695.315,369.000 1685.241 C 203.199 1619.931,169.523 1605.807,169.966 1601.760 C 170.222 1599.417,190.240 1545.525,214.451 1482.000 C 238.662 1418.475,275.375 1321.950,296.035 1267.500 C 316.696 1213.050,358.995 1101.675,390.033 1020.000 C 554.201 588.001,695.755 214.893,700.549 201.543 C 701.331 199.367,704.340 198.283,707.235 199.135 C 710.131 199.986,748.275 210.779,792.000 223.118 M701.253 304.715 C 690.977 310.289,683.010 325.901,660.595 384.384 C 650.873 409.748,608.963 518.573,567.460 626.219 C 498.439 805.238,492.000 823.501,492.000 840.265 C 492.000 865.458,498.183 877.507,514.024 883.184 C 526.318 887.589,554.643 896.856,813.000 980.991 C 884.775 1004.364,972.525 1033.166,1008.000 1044.994 L 1072.500 1066.500 1113.000 1066.494 C 1148.341 1066.489,1155.315 1065.650,1167.752 1059.912 C 1188.712 1050.240,1213.981 1024.878,1225.451 1002.000 C 1230.828 991.275,1271.177 884.336,1315.114 764.359 C 1400.430 531.390,1401.403 528.037,1389.431 508.405 C 1386.381 503.403,1378.623 497.017,1372.193 494.215 C 1362.897 490.164,1094.912 409.814,763.500 311.712 C 720.412 298.957,713.332 298.161,701.253 304.715 M899.402 449.730 C 948.406 464.431,1032.375 489.473,1086.000 505.378 C 1223.090 546.040,1224.000 546.321,1224.000 548.090 C 1224.000 549.844,1210.516 587.024,1129.986 807.313 L 1075.585 956.125 1065.024 955.530 C 1055.469 954.990,1022.629 944.933,883.500 899.939 C 836.784 884.830,713.929 845.626,675.384 833.526 C 663.220 829.707,652.651 824.975,651.896 823.009 C 651.142 821.043,661.386 791.999,674.661 758.467 C 687.936 724.935,718.494 647.550,742.567 586.500 C 766.640 525.450,790.122 466.050,794.749 454.500 C 799.376 442.950,803.983 431.138,804.987 428.250 C 805.990 425.363,807.597 423.000,808.557 423.000 C 809.518 423.000,850.397 435.028,899.402 449.730 M1536.982 459.810 L 1566.463 487.500 1552.927 523.500 C 1545.483 543.300,1515.603 623.625,1486.528 702.000 C 1457.454 780.375,1418.104 886.350,1399.084 937.500 C 1308.042 1182.339,1312.407 1171.224,1308.295 1168.682 C 1304.365 1166.253,1296.756 1169.702,1294.800 1174.800 C 1293.885 1177.185,1295.954 1181.954,1299.399 1185.399 C 1304.601 1190.601,1305.108 1192.876,1302.395 1198.831 C 1300.495 1203.001,1296.552 1206.000,1292.970 1206.000 C 1284.989 1206.000,1282.210 1213.550,1286.939 1222.385 C 1292.776 1233.292,1286.152 1250.346,1275.603 1251.567 C 1265.888 1252.693,1262.932 1262.337,1270.586 1267.934 C 1275.116 1271.247,1275.324 1272.976,1272.119 1280.712 C 1270.010 1285.804,1265.763 1290.056,1262.263 1290.580 C 1252.502 1292.040,1248.758 1300.550,1254.893 1307.329 C 1262.438 1315.666,1256.653 1331.285,1245.544 1332.573 C 1235.886 1333.693,1232.958 1343.356,1240.586 1348.934 C 1245.116 1352.247,1245.324 1353.976,1242.119 1361.712 C 1240.010 1366.804,1235.763 1371.056,1232.263 1371.580 C 1222.582 1373.028,1218.752 1381.544,1224.784 1388.209 C 1229.035 1392.906,1229.287 1395.495,1226.405 1404.885 C 1223.561 1414.151,1221.634 1416.000,1214.818 1416.000 C 1202.893 1416.000,1199.556 1430.885,1210.535 1435.098 C 1216.217 1437.279,1209.456 1455.000,1202.942 1455.000 C 1198.045 1455.000,1191.000 1460.537,1191.000 1464.386 C 1191.000 1465.588,1193.027 1468.599,1195.505 1471.077 C 1201.523 1477.094,1196.560 1491.000,1188.395 1491.000 C 1181.029 1491.000,1178.073 1498.662,1182.353 1506.660 C 1187.019 1515.378,1180.782 1536.000,1173.480 1536.000 C 1162.704 1536.000,1155.889 1552.227,1165.168 1555.788 C 1170.967 1558.013,1167.673 1568.442,1159.875 1572.544 C 1150.848 1577.293,1148.952 1581.304,1152.552 1588.031 C 1157.294 1596.893,1150.672 1616.331,1142.496 1617.549 C 1132.577 1619.027,1128.697 1627.483,1134.829 1634.259 C 1142.112 1642.306,1136.003 1658.343,1125.171 1659.609 C 1116.146 1660.664,1113.488 1669.201,1119.920 1676.473 C 1123.904 1680.977,1122.061 1687.586,1102.205 1740.000 C 1090.016 1772.175,1077.769 1804.571,1074.990 1811.991 C 1068.313 1829.819,1044.992 1854.055,1023.670 1865.324 C 990.782 1882.704,936.252 1896.406,921.769 1890.928 C 915.784 1888.664,916.992 1887.605,932.652 1881.385 C 967.856 1867.402,1000.809 1834.259,1023.184 1790.331 C 1029.675 1777.589,1043.651 1742.489,1054.243 1712.331 C 1064.835 1682.174,1087.221 1618.350,1103.990 1570.500 C 1120.760 1522.650,1143.964 1456.500,1155.557 1423.500 C 1167.149 1390.500,1181.126 1350.675,1186.616 1335.000 C 1198.359 1301.476,1234.329 1198.967,1303.467 1002.000 C 1330.977 923.625,1362.720 833.175,1374.006 801.000 C 1385.292 768.825,1417.081 678.375,1444.647 600.000 C 1472.213 521.625,1496.747 451.763,1499.166 444.750 C 1501.585 437.738,1504.450 432.027,1505.532 432.060 C 1506.614 432.094,1520.767 444.581,1536.982 459.810 M1375.047 920.033 C 1355.309 966.909,1351.266 990.100,1362.856 989.954 C 1370.389 989.859,1373.651 984.724,1384.365 956.093 C 1396.682 923.175,1397.288 911.038,1386.688 909.533 C 1381.248 908.761,1378.902 910.878,1375.047 920.033 M662.962 962.576 C 656.989 968.550,654.000 974.545,654.000 980.555 C 654.000 997.801,672.019 1005.825,678.552 991.487 C 682.400 983.042,682.165 982.565,672.750 979.671 C 664.912 977.261,663.519 982.314,670.885 986.436 C 674.381 988.392,674.767 989.790,672.242 991.351 C 659.605 999.161,655.397 977.370,667.370 966.122 C 673.115 960.725,676.806 959.611,684.111 961.072 C 690.858 962.422,693.140 961.904,692.260 959.223 C 691.588 957.175,686.737 955.076,681.481 954.557 C 674.129 953.832,669.857 955.682,662.962 962.576 M696.548 981.948 C 686.254 992.334,678.772 1001.772,679.922 1002.922 C 681.072 1004.072,684.385 1002.867,687.283 1000.244 C 694.730 993.504,703.744 995.912,702.561 1004.324 C 702.045 1007.996,702.888 1011.000,704.435 1011.000 C 708.737 1011.000,721.367 969.167,718.062 965.862 C 716.331 964.131,708.128 970.263,696.548 981.948 M740.187 975.862 C 726.166 993.380,711.000 1013.910,711.000 1015.372 C 711.000 1020.788,717.984 1014.920,727.809 1001.250 C 734.035 992.588,739.550 984.938,740.064 984.250 C 743.486 979.679,743.341 988.236,739.798 1000.009 C 734.730 1016.850,738.206 1020.536,747.413 1008.083 C 757.819 994.008,759.937 997.351,751.349 1014.298 C 744.235 1028.337,743.364 1037.048,749.750 1030.300 C 752.133 1027.781,771.000 985.064,771.000 982.186 C 771.000 978.069,761.468 982.230,756.536 988.500 C 748.241 999.045,746.849 997.941,748.965 982.500 C 750.995 967.689,748.337 965.679,740.187 975.862 M709.329 984.750 C 706.647 993.478,706.066 994.013,702.004 991.503 C 699.629 990.035,700.160 987.691,703.770 983.702 C 710.512 976.251,711.864 976.506,709.329 984.750 M769.896 1008.548 C 764.339 1020.622,760.680 1031.500,761.767 1032.721 C 765.359 1036.760,792.000 1039.127,792.000 1035.408 C 792.000 1033.533,788.625 1031.831,784.500 1031.625 C 768.486 1030.824,768.877 1031.150,770.550 1020.000 C 770.798 1018.350,775.050 1017.000,780.000 1017.000 C 784.950 1017.000,789.000 1015.650,789.000 1014.000 C 789.000 1012.350,786.300 1011.000,783.000 1011.000 C 776.100 1011.000,775.779 1009.888,780.258 1001.517 C 782.925 996.535,785.377 995.778,793.758 997.351 C 805.189 999.495,808.102 994.584,797.250 991.464 C 793.538 990.397,788.138 988.865,785.250 988.060 C 781.145 986.915,777.799 991.381,769.896 1008.548 M818.416 1011.750 C 809.940 1025.135,803.552 1041.506,805.165 1045.710 C 807.359 1051.425,826.186 1051.300,830.968 1045.539 C 833.019 1043.067,833.861 1037.856,832.856 1033.852 C 831.625 1028.946,832.481 1026.074,835.521 1024.907 C 841.470 1022.624,841.271 1009.130,835.255 1006.821 C 826.922 1003.623,822.797 1004.831,818.416 1011.750 M833.439 1016.250 C 832.889 1019.138,829.310 1021.945,825.486 1022.489 C 819.291 1023.371,818.897 1022.798,821.872 1017.239 C 825.970 1009.581,834.855 1008.822,833.439 1016.250 M848.456 1028.838 C 838.201 1039.093,836.744 1042.201,837.559 1052.088 C 838.359 1061.795,839.645 1063.633,846.164 1064.393 C 856.885 1065.641,868.576 1055.428,874.659 1039.501 C 878.812 1028.628,879.072 1025.202,876.028 1021.533 C 869.787 1014.014,860.935 1016.359,848.456 1028.838 M870.000 1031.770 C 870.000 1042.253,856.921 1059.000,848.733 1059.000 C 839.482 1059.000,841.415 1044.221,852.166 1032.750 C 863.710 1020.433,870.000 1020.087,870.000 1031.770 M887.213 1039.097 C 888.276 1048.527,887.289 1054.500,883.860 1059.397 C 881.187 1063.213,879.000 1068.060,879.000 1070.168 C 879.000 1077.329,883.872 1074.036,888.911 1063.467 C 891.962 1057.070,898.070 1050.962,904.467 1047.911 C 914.987 1042.895,919.687 1035.428,909.750 1039.519 C 896.271 1045.068,894.470 1044.709,893.477 1036.272 C 892.940 1031.702,890.972 1027.462,889.104 1026.849 C 886.773 1026.085,886.180 1029.927,887.213 1039.097 M827.459 1037.281 C 828.273 1042.989,827.031 1044.000,819.209 1044.000 C 809.022 1044.000,808.565 1043.286,813.202 1034.622 C 817.324 1026.921,826.217 1028.580,827.459 1037.281 M476.631 1080.027 C 473.953 1081.592,466.620 1096.451,460.334 1113.047 C 454.049 1129.643,447.465 1142.694,445.703 1142.047 C 395.538 1123.645,393.458 1123.197,387.388 1129.501 C 381.019 1136.116,360.000 1193.687,360.000 1204.517 C 360.000 1211.635,368.467 1216.730,399.894 1228.523 C 407.810 1231.494,413.773 1235.404,413.144 1237.212 C 412.516 1239.021,407.415 1253.694,401.811 1269.821 C 394.082 1292.058,392.384 1300.353,394.784 1304.158 C 396.524 1306.917,413.873 1314.945,433.337 1321.998 C 478.947 1338.527,478.362 1338.783,493.796 1295.485 C 498.106 1283.393,502.828 1272.230,504.289 1270.677 C 505.931 1268.933,517.294 1271.161,534.032 1276.510 C 557.526 1284.018,561.649 1284.592,565.113 1280.833 C 570.525 1274.963,594.000 1210.583,594.000 1201.612 C 594.000 1195.416,590.736 1193.178,570.097 1185.218 C 556.950 1180.148,544.701 1176.000,542.877 1176.000 C 538.938 1176.000,538.759 1176.758,551.942 1137.649 C 559.821 1114.276,561.575 1105.583,559.179 1101.784 C 557.368 1098.913,542.009 1092.586,523.258 1086.985 C 487.592 1076.332,483.899 1075.781,476.631 1080.027 M1012.966 1285.376 C 978.726 1297.584,962.307 1342.738,979.104 1378.500 C 987.532 1396.443,993.041 1401.701,1012.372 1410.252 C 1042.664 1423.652,1077.108 1411.351,1091.721 1381.914 C 1106.032 1353.084,1103.134 1326.042,1083.388 1304.139 C 1064.204 1282.861,1038.917 1276.123,1012.966 1285.376 M840.791 1312.674 C 833.199 1317.224,824.744 1325.970,819.791 1334.395 C 812.704 1346.452,811.509 1351.767,811.560 1371.000 C 811.635 1399.462,816.805 1409.490,839.008 1424.231 C 853.517 1433.865,858.144 1435.384,872.665 1435.287 C 893.149 1435.149,910.594 1426.843,922.109 1411.745 C 939.246 1389.279,943.510 1361.051,932.993 1339.697 C 917.930 1309.116,870.112 1295.100,840.791 1312.674 M1052.399 1309.215 C 1081.259 1324.231,1086.446 1357.053,1063.395 1378.793 C 1045.621 1395.557,1021.823 1394.202,1005.395 1375.491 C 992.212 1360.477,990.324 1346.117,999.300 1329.129 C 1010.496 1307.936,1033.418 1299.339,1052.399 1309.215 M896.815 1334.519 C 916.030 1348.578,921.301 1370.182,910.159 1389.209 C 893.307 1417.987,859.757 1419.067,839.171 1391.495 C 831.243 1380.876,831.180 1358.228,839.048 1347.605 C 850.121 1332.656,864.074 1325.304,877.500 1327.344 C 884.100 1328.346,892.792 1331.575,896.815 1334.519 M507.323 1454.852 C 470.944 1460.338,462.974 1464.772,466.890 1477.343 C 470.791 1489.863,474.674 1490.174,528.765 1482.288 C 568.857 1476.444,576.000 1473.486,576.000 1462.733 C 576.000 1447.499,564.688 1446.201,507.323 1454.852 M651.089 1507.964 C 628.864 1512.033,608.951 1516.796,606.839 1518.548 C 600.775 1523.582,602.117 1538.316,608.975 1541.986 C 616.261 1545.886,699.587 1532.084,710.250 1525.212 C 722.944 1517.031,715.504 1499.721,699.536 1500.283 C 695.116 1500.439,673.315 1503.895,651.089 1507.964 M944.818 1600.720 C 939.302 1607.366,960.845 1760.615,968.071 1766.134 C 973.266 1770.101,984.000 1766.384,984.000 1760.618 C 984.000 1750.708,962.331 1608.379,959.966 1602.750 C 956.654 1594.872,950.370 1594.030,944.818 1600.720 M893.000 1607.000 C 891.900 1608.100,890.971 1613.163,890.935 1618.250 C 890.814 1635.532,909.821 1771.479,912.906 1775.395 C 918.005 1781.867,928.396 1778.451,929.318 1770.000 C 930.935 1755.170,909.702 1610.290,905.523 1607.642 C 900.651 1604.554,895.700 1604.300,893.000 1607.000 M840.215 1619.599 C 836.685 1626.194,856.358 1777.906,861.555 1784.168 C 865.718 1789.185,871.409 1789.032,875.761 1783.788 C 878.448 1780.551,877.467 1766.144,871.523 1721.538 C 867.269 1689.617,862.606 1654.332,861.160 1643.127 C 858.486 1622.403,854.469 1614.000,847.238 1614.000 C 845.023 1614.000,841.863 1616.520,840.215 1619.599 M792.441 1629.969 C 788.607 1634.588,808.376 1786.888,813.635 1793.250 C 818.288 1798.879,827.354 1797.763,829.402 1791.308 C 831.192 1785.670,811.495 1633.846,808.304 1628.683 C 805.823 1624.669,796.192 1625.449,792.441 1629.969 M739.115 1639.423 C 736.781 1645.503,758.720 1797.548,762.607 1802.231 C 766.917 1807.424,776.817 1806.967,778.924 1801.477 C 781.283 1795.328,759.333 1643.516,755.399 1638.776 C 751.119 1633.619,741.191 1634.013,739.115 1639.423 M693.750 1642.987 C 688.790 1644.988,689.020 1659.038,694.674 1699.253 C 697.244 1717.539,701.656 1749.243,704.477 1769.706 C 709.752 1807.973,713.203 1815.250,724.092 1811.072 C 730.855 1808.476,730.427 1801.094,718.687 1717.857 C 708.113 1642.890,706.440 1637.866,693.750 1642.987 " stroke="none" fill="black" fill-rule="evenodd"/></svg>